# AST/ASF file generated using VICON BodyLanguage
# -----------------------------------------------
:version 1.10
:name VICON
:units
  mass 1.0
  length 0.45
  angle deg
:documentation
   .ast/.asf automatically generated from VICON data using
   VICON BodyBuilder and BodyLanguage model FoxedUp or BRILLIANT.MOD
:root
   order TX TY TZ RX RY RZ
   axis XYZ
   position 0 0 0  
   orientation 0 0 0 
:bonedata
  begin
     id 1 
     name lhipjoint
     direction 0.603808 -0.713975 0.35448 
     length 2.2025 
     axis 0 0 0  XYZ
  end
  begin
     id 2 
     name lfemur
     direction 0.34202 -0.939693 0  
     length 6.55877  
     axis 0 0 20  XYZ
    dof rx ry rz
    limits (-160.0 20.0)
           (-70.0 70.0)
           (-60.0 70.0)
  end
  begin
     id 3 
     name ltibia
     direction 0.34202 -0.939693 0   
     length 6.80302   
     axis 0 0 20   XYZ
    dof rx
    limits (-10.0 170.0)
  end
  begin
     id 4 
     name lfoot
     direction 0.091848 -0.25235 0.963267   
     length 2.03446   
     axis -90 7.62852e-016 20   XYZ
    dof rx rz
    limits (-45.0 90.0)
           (-70.0 20.0)
  end
  begin
     id 5 
     name ltoes
     direction 1.53608e-011 -4.21925e-011 1   
     length 1.02033   
     axis -90 7.62852e-016 20   XYZ
    dof rx
    limits (-90.0 20.0)
  end
  begin
     id 6 
     name rhipjoint
     direction -0.587285 -0.724947 0.359928   
     length 2.16916  
     axis 0 0 0  XYZ 
  end
  begin
     id 7 
     name rfemur
     direction -0.34202 -0.939693 0   
     length 6.43173   
     axis 0 0 -20   XYZ
    dof rx ry rz
    limits (-160.0 20.0)
           (-70.0 70.0)
           (-70.0 60.0)
  end
  begin
     id 8 
     name rtibia
     direction -0.34202 -0.939693 0   
     length 6.70662   
     axis 0 0 -20   XYZ
    dof rx
    limits (-10.0 170.0)
 end
 begin
     id 9 
     name rfoot
     direction -0.11854 -0.325686 0.938018   
     length 2.0773  
     axis -90 -7.62852e-016 -20   XYZ
    dof rx rz
    limits (-45.0 90.0)
           (-20.0 70.0)
  end
  begin
     id 10 
     name rtoes
     direction -1.53547e-011 -4.21838e-011 1   
     length 1.03267   
     axis -90 -7.62852e-016 -20   XYZ
    dof rx
    limits (-90.0 20.0)
  end
  begin
     id 11 
     name lowerback
     direction -0.0286554 0.999539 0.0100613   
     length 2.08751   
     axis 0 0 0   XYZ
    dof rx ry rz
    limits (-20.0 45.0)
           (-30.0 30.0)
           (-30.0 30.0)
  end
  begin
     id 12 
     name upperback
     direction 0.0227093 0.999705 -0.00860929   
     length 2.08517   
     axis 0 0 0   XYZ
    dof rx ry rz
    limits (-20.0 45.0)
           (-30.0 30.0)
           (-30.0 30.0)
  end
  begin
     id 13 
     name thorax
     direction 0.0351627 0.999285 -0.013892   
     length 2.08412   
     axis 0 0 0   XYZ
    dof rx ry rz
    limits (-20.0 45.0)
           (-30.0 30.0)
           (-30.0 30.0)
  end
  begin
     id 14 
     name lowerneck
     direction -0.0696283 0.997344 0.0213922   
     length 1.44164   
     axis 0 0 0   XYZ
    dof rx ry rz
    limits (-20.0 45.0)
           (-30.0 30.0)
           (-30.0 30.0)
  end
  begin
     id 15 
     name upperneck
     direction 0.0531 0.990412 -0.127531   
     length 1.45022   
     axis 0 0 0   XYZ
    dof rx ry rz
    limits (-20.0 45.0)
           (-30.0 30.0)
           (-30.0 30.0)
  end
  begin
     id 16
     name head
     direction 0.0188154 0.998548 -0.0504727  
     length 1.45845  
     axis 0 0 0   XYZ
    dof rx ry rz
    limits (-20.0 45.0)
           (-30.0 30.0)
           (-30.0 30.0)
  end
  begin
     id 17 
     name lclavicle
     direction 0.961559 0.260051 0.088188  
     length 2.86057  
     axis 0 0 0   XYZ
    dof ry rz
    limits (-20.0 10.0)
           (0.0 20.0)
  end
  begin
     id 18 
     name lhumerus
     direction 1 -4.48959e-011 2.88185e-027   
     length 4.36901   
     axis 180 -30 -90   XYZ
    dof rx ry rz
    limits (-60.0 90.0)
           (-90.0 90.0)
           (-90.0 90.0)
  end
  begin
     id 19
     name lradius
     direction 1 -4.48965e-011 -3.92618e-028   
     length 3.21737   
     axis 180 -30 -90   XYZ
    dof rx
    limits (-10.0 170.0)
  end
  begin
     id 20
     name lwrist
     direction 1 -4.49037e-011 2.57246e-027   
     length 1.60869   
     axis -1.61769e-015 90 90   XYZ
    dof ry
    limits (-180.0 0.0)
 end
  begin
     id 21 
     name lhand
     direction 1 -4.48807e-011 5.12958e-027   
     length 0.564313   
     axis -3.27988e-015 90 90   XYZ
    dof rx rz
    limits (-90.0 90.0)
           (-45.0 45.0)
  end
  begin
     id 22 
     name lfingers
     direction 1 -4.48879e-011 1.02687e-026   
     length 0.454963   
     axis -6.5598e-015 90 90   XYZ
    dof rx
    limits (0.0 90.0)
  end
  begin
     id 23
     name lthumb
     direction 0.707107 -6.3475e-011 0.707107   
     length 0.653239   
     axis -90 45 2.19363e-014   XYZ
    dof rx rz
    limits (-45.0 45.0)
           (-45.0 45.0)
  end
  begin
     id 24 
     name rclavicle
     direction -0.954677 0.253915 0.155304   
     length 3.11497  
     axis 0 0 0   XYZ 
    dof ry rz
    limits (-10.0 20.0)
           (-20.0 0.0)
  end
  begin
     id 25 
     name rhumerus
     direction -1 -4.48958e-011 -8.20169e-028  
     length 4.34118   
     axis 180 30 90   XYZ
    dof rx ry rz
    limits (-90.0 60.0)
           (-90.0 90.0)
           (-90.0 90.0)
  end
  begin
     id 26 
     name rradius
     direction -1 -4.48978e-011 1.5676e-027   
     length 3.09531   
     axis 180 30 90   XYZ
    dof rx
    limits (-10.0 170.0)
  end
  begin
     id 27 
     name rwrist
     direction -1 -4.49001e-011 2.57123e-027   
     length 1.54765   
     axis -1.61769e-015 -90 -90   XYZ
    dof ry
    limits (-180.0 0.0)
  end
  begin
     id 28
     name rhand
     direction -1 -4.48847e-011 5.13225e-027   
     length 0.597446   
     axis -3.27988e-015 -90 -90   XYZ
    dof rx rz
    limits (-90.0 90.0)
           (-45.0 45.0)
  end
  begin
     id 29
     name rfingers
     direction -1 -4.49094e-011 1.02974e-026   
     length 0.481677   
     axis -6.5598e-015 -90 -90   XYZ
    dof rx
    limits (0.0 90.0)
  end
  begin
     id 30
     name rthumb
     direction -0.707107 -6.34859e-011 0.707107   
     length 0.691594   
     axis -90 -45 -2.19363e-014   XYZ
    dof rx rz
    limits (-45.0 45.0)
           (-45.0 45.0)
  end
:hierarchy
  begin
    root lhipjoint rhipjoint lowerback
    lhipjoint lfemur
    lfemur ltibia
    ltibia lfoot
    lfoot ltoes
    rhipjoint rfemur
    rfemur rtibia
    rtibia rfoot
    rfoot rtoes
    lowerback upperback
    upperback thorax
    thorax lowerneck lclavicle rclavicle
    lowerneck upperneck
    upperneck head
    lclavicle lhumerus
    lhumerus lradius
    lradius lwrist
    lwrist lhand lthumb
    lhand lfingers
    rclavicle rhumerus
    rhumerus rradius
    rradius rwrist
    rwrist rhand rthumb
    rhand rfingers
  end

#!OML:ASF I:\Acrobat_Osman\acrobat\cartwheel_test 2\Patient 1\Session 1\acrobat.ASF
:FULLY-SPECIFIED
:DEGREES
330
root 11.3473 14.5968 -20.6555 -327.914 340.514 1.82
lowerback 16.4449 -3.05766 -10.9628
upperback 3.4166 -5.81811 0.603955
thorax -4.33003 -2.75452 7.94424
lowerneck -8.34527 -9.2582 -8.56393
upperneck -3.3086 -11.7859 11.3155
head 1.55976 -5.75009 4.21439
rclavicle 2.8625e-014 1.35174e-014
rhumerus -31.1423 3.25126 -48.3415
rradius 83.389
rwrist -4.85916
rhand -39.506 45.601
rfingers 7.12502
rthumb -12.4915 15.9944
lclavicle 2.8625e-014 1.35174e-014
lhumerus -27.6822 -23.7173 76.4353
lradius 106.735
lwrist 6.77099
lhand -35.0332 -321.416
lfingers 7.12502
lthumb -8.17682 68.4061
rfemur -65.6654 -7.54117 12.7606
rtibia 61.5433
rfoot -17.2056 -6.8723
rtoes -18.6001
lfemur -365.261 -4.86781 -359.722
ltibia 28.0345
lfoot -18.0369 26.3874
ltoes -35.0408
331
root 11.1144 14.4417 -20.765 -328.946 343.338 2.9551
lowerback 14.4389 -3.41748 -9.33553
upperback 2.99565 -5.83249 0.773726
thorax -3.84779 -2.79465 7.05415
lowerneck -7.91104 -9.73373 -8.83847
upperneck -3.18493 -12.4226 11.1548
head 1.59228 -6.0713 4.17739
rclavicle -1.54257e-013 3.4191e-014
rhumerus -28.8644 2.34156 -48.4406
rradius 85.6753
rwrist -5.38432
rhand -39.0288 45.9402
rfingers 7.12502
rthumb -12.0314 16.306
lclavicle -1.54257e-013 3.4191e-014
lhumerus -29.0108 -24.2349 77.0058
lradius 109.879
lwrist 6.63407
lhand -34.23 -321.038
lfingers 7.12502
lthumb -7.40158 68.8123
rfemur -66.279 -8.4407 12.2944
rtibia 65.2024
rfoot -18.3115 -6.26465
rtoes -19.2904
lfemur -362.938 -5.73047 -361.075
ltibia 27.3784
lfoot -15.8608 26.0094
ltoes -34.7636
332
root 10.9153 14.3023 -20.8815 -329.661 345.743 3.50878
lowerback 12.7456 -3.5582 -7.6944
upperback 2.47289 -5.64827 1.14599
thorax -3.64082 -2.71643 6.38311
lowerneck -7.14127 -10.089 -9.14515
upperneck -3.67531 -12.8885 10.9049
head 1.36916 -6.32677 4.1673
rclavicle -1.09729e-013 1.74931e-014
rhumerus -26.496 1.88259 -48.5269
rradius 87.9544
rwrist -5.60292
rhand -38.6578 47.5255
rfingers 7.12502
rthumb -11.6737 17.8707
lclavicle -1.09729e-013 1.74931e-014
lhumerus -30.1173 -24.2596 77.8913
lradius 112.622
lwrist 6.86115
lhand -34.3828 -321.255
lfingers 7.12502
lthumb -7.54908 68.5898
rfemur -66.9157 -9.14805 12.2167
rtibia 68.0053
rfoot -18.7887 -5.32832
rtoes -20.6662
lfemur -361.038 -5.63181 -362.388
ltibia 27.107
lfoot -13.4313 24.0003
ltoes -32.5408
333
root 10.7412 14.191 -21.019 -330.318 347.689 3.8203
lowerback 11.6356 -3.53407 -6.41188
upperback 1.90908 -5.37546 1.66067
thorax -3.74144 -2.57656 6.10942
lowerneck -6.24338 -10.319 -9.43108
upperneck -4.60019 -13.1876 10.5798
head 0.974409 -6.50514 4.16908
rclavicle 3.26007e-014 2.34566e-014
rhumerus -24.0828 2.22057 -48.8529
rradius 90.6622
rwrist -5.88232
rhand -39.1439 46.2022
rfingers 7.12502
rthumb -12.1424 16.5746
lclavicle 3.26007e-014 2.34566e-014
lhumerus -31.1824 -23.3699 79.183
lradius 115.182
lwrist 6.64513
lhand -33.8024 -321.751
lfingers 7.12502
lthumb -6.98885 68.1138
rfemur -67.3141 -9.87367 12.5488
rtibia 69.9941
rfoot -19.2461 -4.41664
rtoes -20.7026
lfemur -359.433 -4.42684 -363.877
ltibia 27.1318
lfoot -13.4527 20.3446
ltoes -34.3126
334
root 10.583 14.115 -21.1785 -330.865 349.296 4.0638
lowerback 10.932 -3.40339 -5.44875
upperback 1.39841 -5.04216 2.13213
thorax -3.98097 -2.40163 5.99507
lowerneck -5.48496 -10.4532 -9.49357
upperneck -5.67307 -13.3692 10.359
head 0.541092 -6.62111 4.17924
rclavicle -5.09883e-014 -2.92213e-014
rhumerus -21.6636 2.71599 -49.4703
rradius 93.0096
rwrist -6.06615
rhand -39.2171 46.564
rfingers 7.12502
rthumb -12.213 16.9405
lclavicle -5.09883e-014 -2.92213e-014
lhumerus -31.7342 -22.2719 80.401
lradius 117.36
lwrist 6.0828
lhand -33.2099 -322.174
lfingers 7.12502
lthumb -6.41687 67.7083
rfemur -67.5697 -10.5685 13.1679
rtibia 71.2686
rfoot -19.8969 -3.80687
rtoes -19.8246
lfemur -358.313 -2.63109 -365.581
ltibia 27.4471
lfoot -13.1878 16.3208
ltoes -34.8086
335
root 10.4331 14.0647 -21.3588 -331.129 350.667 4.3021
lowerback 10.2699 -3.23417 -4.66388
upperback 0.923411 -4.6943 2.44355
thorax -4.19833 -2.22246 5.81234
lowerneck -4.73516 -10.5892 -9.2661
upperneck -6.75056 -13.5961 10.0774
head 0.0897626 -6.75869 4.57071
rclavicle -2.83268e-015 -4.32854e-014
rhumerus -19.4501 3.44193 -50.5003
rradius 95.3444
rwrist -6.18033
rhand -39.3314 46.9705
rfingers 7.12502
rthumb -12.3232 17.3536
lclavicle -2.83268e-015 -4.32854e-014
lhumerus -31.9163 -21.4244 81.4892
lradius 119.205
lwrist 5.57482
lhand -33.4309 -322.398
lfingers 7.12502
lthumb -6.63016 67.4781
rfemur -67.9637 -11.0027 13.9153
rtibia 71.9507
rfoot -20.4082 -3.78839
rtoes -19.653
lfemur -357.804 -0.548328 -367.422
ltibia 27.8719
lfoot -13.0091 11.5608
ltoes -35.1513
336
root 10.2918 14.0319 -21.5563 -331.297 351.769 4.69612
lowerback 9.65746 -3.0901 -4.2159
upperback 0.587278 -4.42935 2.61116
thorax -4.26521 -2.08991 5.67551
lowerneck -4.48438 -10.7609 -8.93333
upperneck -7.59953 -13.8148 10.3159
head -0.217043 -6.88786 4.62842
rclavicle 7.97127e-014 -1.05356e-014
rhumerus -17.0961 4.4115 -52.0053
rradius 97.6053
rwrist -6.02451
rhand -39.5002 47.7249
rfingers 7.12502
rthumb -12.4859 18.118
lclavicle 7.97127e-014 -1.05356e-014
lhumerus -31.9364 -20.8119 82.6105
lradius 120.893
lwrist 5.43754
lhand -34.1189 -322.35
lfingers 7.12502
lthumb -7.29439 67.5047
rfemur -68.3598 -11.0146 14.3197
rtibia 72.1709
rfoot -20.908 -4.32225
rtoes -19.494
lfemur -357.535 1.42788 -369.643
ltibia 28.2064
lfoot -12.861 6.76315
ltoes -39.0173
337
root 10.1579 14.0261 -21.7631 -331.6 352.752 5.19552
lowerback 9.38927 -3.01284 -4.04134
upperback 0.370911 -4.29772 2.70416
thorax -4.36456 -2.02004 5.65087
lowerneck -4.43688 -10.8938 -8.71986
upperneck -8.16893 -13.966 10.6708
head -0.383978 -6.97815 4.73007
rclavicle 2.76311e-014 -2.22639e-014
rhumerus -14.5366 5.76749 -54.0457
rradius 99.6529
rwrist -5.61317
rhand -39.3118 48.4557
rfingers 7.12502
rthumb -12.3043 18.8377
lclavicle 2.76311e-014 -2.22639e-014
lhumerus -31.9562 -20.43 83.6506
lradius 122.566
lwrist 5.5043
lhand -34.073 -320.2
lfingers 7.12502
lthumb -7.24999 69.6556
rfemur -68.4408 -10.6189 14.2807
rtibia 71.9984
rfoot -22.0112 -5.13706
rtoes -16.8058
lfemur -357.304 2.0313 -372.398
ltibia 28.3627
lfoot -12.9542 3.30493
ltoes -39.602
338
root 10.0303 14.0383 -21.9741 -331.914 353.76 5.58264
lowerback 9.29153 -2.97345 -3.84108
upperback 0.20506 -4.21912 2.77558
thorax -4.50263 -1.97677 5.60531
lowerneck -4.43763 -11.035 -8.46175
upperneck -8.71702 -14.0902 11.3136
head -0.444189 -7.06947 4.43535
rclavicle -5.1684e-014 3.65764e-014
rhumerus -12.0109 7.44034 -56.5232
rradius 101.445
rwrist -5.0517
rhand -39.1071 48.94
rfingers 7.12502
rthumb -12.1069 19.3103
lclavicle -5.1684e-014 3.65764e-014
lhumerus -32.0394 -20.4693 84.6726
lradius 124.135
lwrist 5.66188
lhand -34.1577 -318.107
lfingers 7.12502
lthumb -7.33177 71.7458
rfemur -68.3467 -9.91772 14.1217
rtibia 71.5787
rfoot -23.0352 -6.15172
rtoes -13.4773
lfemur -357.288 2.52735 -374.993
ltibia 28.3827
lfoot -13.4108 0.413261
ltoes -39.1801
